<svg xmlns="http://www.w3.org/2000/svg" viewBox="0 0 97.93 63.47"><defs><style>.cls-1{fill:#010101;}.cls-2{fill:#c0c031;}.cls-3{fill:#fff;}</style></defs><g id="Capa_2" data-name="Capa 2"><g id="Layer_1" data-name="Layer 1"><path class="cls-1" d="M.46,1.63C2,.77,5.35,4.8,6.7,4.73s4.43-1.07,7-.34C16.46,1.45,18.49-.47,19.82.1s-.6,5.8-.06,8.45c.09.45.16.87.22,1.29,4.74,4.13,10.28,4.74,15.94,5.85,6.45,1.26,13,1.63,19.52,2.69s13,2.88,18.37,6.69S82.57,33,82.65,39.55c0,3.33-.08,9.16,2.27,11.51,1.37,1.37,3.87,2.91,5.8,2.94,7.15.1,7.86,3.61,6.83,5.25S94.48,61,92.71,60.76c-5-.59-9.95-2.1-13.13-6-2.92-3.62-4.24-8.29-4.13-13.84A10.35,10.35,0,0,0,72.63,49a12.81,12.81,0,0,1,.26,3.64A7.74,7.74,0,0,1,71,56a15.8,15.8,0,0,1-4.72,4.36,6.24,6.24,0,0,1-4.19.56,16.29,16.29,0,0,1-4.81,2c-1.66.34-4.53,1.07-5.77-.09-3.48-3.24,3.7-3.65,5.79-4.57s3.49-3.74,2.11-5.56A10.85,10.85,0,0,0,56,49.86C53.84,48.38,42.9,50,34,40c-1.54,5.73-.51,9.56-.9,15.86a11.86,11.86,0,0,1-1.31,3.92c-1,1.49-3.11,1.57-4.9,1.49-.93,0-2.44.4-2.74-1.07a1.74,1.74,0,0,1,.74-1.57,5.06,5.06,0,0,1-3.23-.18,2.51,2.51,0,0,1-1-1A1.19,1.19,0,0,1,20.77,56c.46-.42,1.23-.31,1.69-.73a1.81,1.81,0,0,0,.4-1.43,57.37,57.37,0,0,0-1.61-13c-2.61-1.93-5.37-2.81-8.46-6.49a21,21,0,0,1-4.88-10C7.34,22,5.7,21.05,4.55,19.6A8.38,8.38,0,0,1,1.33,15c-.45-1.39.38-4.78.38-4.78S-1.07,2.48.46,1.63Z"/><path class="cls-2" d="M9,13.73A2.32,2.32,0,0,0,5.2,13C5.48,14.61,8.11,15.61,9,13.73Z"/><path class="cls-1" d="M7.49,12.35a2.1,2.1,0,0,0-.7-.08,4.88,4.88,0,0,0,0,.64c.09.77.31,1.22.52,1.19s.32-.51.23-1.27A3.16,3.16,0,0,0,7.49,12.35Z"/><path class="cls-3" d="M7.21,13a.36.36,0,0,1-.71.09.35.35,0,0,1,.31-.4A.36.36,0,0,1,7.21,13Z"/><path class="cls-2" d="M13.08,13.46a2.21,2.21,0,0,1,3.59-1.21A2,2,0,0,1,13.08,13.46Z"/><path class="cls-1" d="M14.4,11.85a3.19,3.19,0,0,0,0,.42c.09.75.33,1.34.53,1.32s.3-.66.21-1.4c0-.16,0-.31-.07-.45A2.13,2.13,0,0,0,14.4,11.85Z"/><path class="cls-3" d="M14.84,12.44a.36.36,0,0,1-.32.4.35.35,0,0,1-.4-.31.36.36,0,0,1,.72-.09Z"/></g></g></svg>