<svg xmlns="http://www.w3.org/2000/svg" viewBox="0 0 68.45 73.59"><defs><style>.cls-1{fill:#010101;}.cls-2{fill:#bcbb4c;}.cls-3{fill:#dcda73;}.cls-4{fill:#fff;}</style></defs><g id="Capa_2" data-name="Capa 2"><g id="Layer_1" data-name="Layer 1"><path class="cls-1" d="M1,24.59C1,23-1.13,16.38.84,15.67,2.22,15.18,6,20,6,20a30.87,30.87,0,0,1,5.84.06c1.44-2.63,4.2-4.91,5.35-4.54,1.59.5.37,5.52.17,6.45a18,18,0,0,0,.18,3.89,13.92,13.92,0,0,0,6.19,1.93c3.31.26,6.62-.32,9.93-.63,8.09-.74,21,3.06,24,1.49s6.28-7.88,7-13.31A31.85,31.85,0,0,0,63.49,1.66c-1-3.23,2.94-1.34,4.05,2.19a19.86,19.86,0,0,1,.9,6.49C68,27.62,62.9,26,63.5,34.24c.28,3.82.51,7.89-1.39,11.21-.84,1.47-2.06,2.73-2.66,4.31-.85,2.26-.37,7.14,0,9.21.61,3-1.38,6.44-2.12,11.14-.15.94-.45,2.62-2.82,2.62-1,0-3.17-.44-2.48-2.39.31-.87,1.69-1.87,2.14-2.68A8.64,8.64,0,0,0,55.45,62a5.7,5.7,0,0,0-.76-1.51,86.85,86.85,0,0,1-7.22,7.91,3.55,3.55,0,0,1-3.1,1.46c-.87,0-2.22,0-2.64-.88A2.59,2.59,0,0,1,42,66.3a1.63,1.63,0,0,1,2.35-.19,17,17,0,0,0,2.75-3.38,6.38,6.38,0,0,0,.84-4.37c-.59-2.84-3.56-4.55-4.32-7.2-2.47,0-5.09.47-7,.58a22.15,22.15,0,0,0-9,2.29c-.27,5-.61,10-1.06,15a6.25,6.25,0,0,1-.64,2.67,3.27,3.27,0,0,1-3.65,1.43c-1.34-.41-2.55-.27-2.39-1.74s2.16-1.07,2.84-1.8a3.59,3.59,0,0,0,.78-2.79,18.16,18.16,0,0,0-.7-2.89A25.8,25.8,0,0,1,22,58.68c-2.83,3.46-4.79,7.77-7.33,11.53a10.14,10.14,0,0,1-2.1,2.42,4.19,4.19,0,0,1-3,.94,2.64,2.64,0,0,1-2.27-2A2,2,0,0,1,9,69.3a11.62,11.62,0,0,0,1.31.07c.82-.14,1.27-1,1.61-1.75A38.54,38.54,0,0,0,15.18,58a13,13,0,0,0-1.95-9.73c-1-1.34-2.33-2.4-3.3-3.75C7.41,41,1.79,32.79,1.12,28.8h0A16.81,16.81,0,0,1,1,24.59Z"/><path class="cls-2" d="M6.69,27.59a1.79,1.79,0,0,1-1.58.78,1.64,1.64,0,0,1-1.58-1.58,1.4,1.4,0,0,1,1.72-1.22A2.15,2.15,0,0,1,6.69,27.59Z"/><path class="cls-3" d="M6.21,27.8a1.15,1.15,0,0,0,.07-1,.63.63,0,0,0-.14-.27.23.23,0,0,0-.28,0,.29.29,0,0,0-.08.25,1.41,1.41,0,0,1,0,.28c0,.24-.28.38-.51.42a1.54,1.54,0,0,1-1.56-.65,1.59,1.59,0,0,0,.68,1.06,1.65,1.65,0,0,0,1.24.24A1,1,0,0,0,6.21,27.8Z"/><path class="cls-1" d="M5.51,26.84c0,.7-.16,1.27-.35,1.27s-.34-.57-.34-1.27.15-1.27.34-1.27S5.51,26.14,5.51,26.84Z"/><path class="cls-4" d="M5,26.42a.32.32,0,1,1-.32-.33A.32.32,0,0,1,5,26.42Z"/><path class="cls-2" d="M10.73,27.59a1.78,1.78,0,0,0,1.58.78,1.64,1.64,0,0,0,1.57-1.58,1.39,1.39,0,0,0-1.71-1.22A2.15,2.15,0,0,0,10.73,27.59Z"/><path class="cls-3" d="M13.68,27.17a1.06,1.06,0,0,0-.24-.79c-.09-.12-.23-.25-.38-.2a.28.28,0,0,0-.16.24c0,.1,0,.2,0,.31a1,1,0,0,1-.6.84,2.67,2.67,0,0,1-1.05.22,1.69,1.69,0,0,0,1.11.31,1.64,1.64,0,0,0,1.05-.49A.87.87,0,0,0,13.68,27.17Z"/><path class="cls-1" d="M12.7,26.75c0,.65-.16,1.18-.36,1.18S12,27.4,12,26.75s.16-1.18.36-1.18S12.7,26.1,12.7,26.75Z"/><path class="cls-4" d="M12.15,26.42a.32.32,0,1,1-.32-.34A.33.33,0,0,1,12.15,26.42Z"/></g></g></svg>