<svg xmlns="http://www.w3.org/2000/svg" viewBox="0 0 81.38 22.82"><defs><style>.cls-1{fill:#791314;}</style></defs><g id="Capa_2" data-name="Capa 2"><g id="Layer_1" data-name="Layer 1"><path class="cls-1" d="M28.82,5.57c-2,.14-5.83-.24-7.47-.24C15.83,5.32,8,6.57,4.58,6.79-.48,7.11-4.7,13,11.19,13.11S16.81,18,15.27,19.3s-1.41,3.52,12,3.52,28.45-2,18.14-4.55c-4.86-1.19-10.89-1.37-8.16-2.63,2.25-1,4.22-1.26,14.77-1.61s16.78-1.19,20.81-1.66c14.52-1.68,8-5.16-.1-4.57a87.42,87.42,0,0,1-16.21-.31c-3.94-.56-6.19-1.27-4.22-3.8s.77-4-12-3.62S36.5,4.25,33.41,5.24C31.71,5.78,30,5.48,28.82,5.57Z"/></g></g></svg>