<svg xmlns="http://www.w3.org/2000/svg" viewBox="0 0 68.2 68.2"><defs><style>.cls-1{fill:#aa875e;}.cls-1,.cls-2,.cls-3,.cls-4,.cls-5,.cls-6{stroke:#231f20;}.cls-1,.cls-2,.cls-3,.cls-5{stroke-miterlimit:10;}.cls-1,.cls-3,.cls-4{stroke-width:0.88px;}.cls-2,.cls-3,.cls-4,.cls-5,.cls-6{fill:none;}.cls-2{stroke-width:0.94px;}.cls-4,.cls-6{stroke-linecap:round;stroke-linejoin:round;}.cls-5{stroke-width:0.85px;}</style></defs><g id="Capa_2" data-name="Capa 2"><g id="Layer_2" data-name="Layer 2"><path class="cls-1" d="M43.38,48.59a12.71,12.71,0,0,0-.84-3.08c-.12-.29-.25-.56-.38-.83a20.81,20.81,0,0,0-1.79-3.08A20.26,20.26,0,0,0,38.21,39a16.67,16.67,0,0,0-4.69-3.43L32,36.63l-1.24.86a9.08,9.08,0,0,0-2.61,2.21,16.89,16.89,0,0,0-1.44,2.16c-.34.55-.65,1.1-.94,1.65a23.26,23.26,0,0,0-1.58,3.59,16.36,16.36,0,0,0-.83,3.6h0a9.72,9.72,0,0,0,.84,5.41,8.38,8.38,0,0,0,2,2.57,7.49,7.49,0,0,0,.89.71,10,10,0,0,0,4.56,1.66,14,14,0,0,0,4.21-.16,12.75,12.75,0,0,0,3.74-1.32,6.47,6.47,0,0,0,.84-.58,7.75,7.75,0,0,0,2-2.91A14.2,14.2,0,0,0,43.38,48.59Zm-4.69,8.26a4.3,4.3,0,0,1-.77.52,9.57,9.57,0,0,1-2.94,1,10.68,10.68,0,0,1-3.1.07,7.49,7.49,0,0,1-4-1.79,6.31,6.31,0,0,1-1.48-1.95,6.85,6.85,0,0,1-.65-3A11.81,11.81,0,0,1,26.38,48a21.78,21.78,0,0,1,1.29-3c.19-.38.4-.76.61-1.14a12.77,12.77,0,0,1,1.85-2.51,7.92,7.92,0,0,1,2.33-1.71,2.83,2.83,0,0,1,2.21-.1l0,0a3,3,0,0,1,1,.59,23.39,23.39,0,0,1,3,3.4A13.42,13.42,0,0,1,40,45.83c.11.25.22.51.31.76a11.8,11.8,0,0,1,.54,5.12A10.66,10.66,0,0,1,40,55,5.25,5.25,0,0,1,38.69,56.85Z"/><path class="cls-2" d="M34.91,39.7s2.24-.69,1.52-2.44"/><path class="cls-3" d="M37.15,41.6A2.07,2.07,0,0,0,38.21,39"/><path class="cls-3" d="M40.37,41.6s-.83,2.12-1.68,1.9"/><path class="cls-3" d="M42.16,44.67A3.35,3.35,0,0,1,40,45.83"/><path class="cls-3" d="M43.38,48.58A2.91,2.91,0,0,1,41,48.9"/><path class="cls-3" d="M43.38,52.26a2.94,2.94,0,0,1-2.49-.55"/><path class="cls-3" d="M42.39,56.09S41.61,56.44,40,55"/><path class="cls-3" d="M39.53,59.58s-1.35,0-1.62-2.21"/><path class="cls-3" d="M35.79,60.9a3.44,3.44,0,0,1-.8-2.57"/><path class="cls-3" d="M31.58,61.06s-1.16-1.71.32-2.65"/><path class="cls-3" d="M27,59.4s-.33-1.82,1.84-2"/><path class="cls-3" d="M24.17,56.12a1.82,1.82,0,0,1,2.21-1.45"/><path class="cls-3" d="M23.34,50.71s1-.79,2.39,1"/><path class="cls-3" d="M24.17,47.1s2.43.15,2.21.89"/><path class="cls-3" d="M25.74,43.51S27.29,44,27.67,45"/><path class="cls-3" d="M28.13,39.7a3,3,0,0,1,2,1.61"/><path class="cls-1" d="M35.21,32.24s5.11,1.24,2.17,5.36"/><path class="cls-1" d="M32,32.7s-4,1.27,0,3.81a7.2,7.2,0,0,0,4.82,1.3,1.62,1.62,0,0,0,1.1-2.54,1.69,1.69,0,0,0-2.08-.45"/><path class="cls-1" d="M31.22.87,32,32.7a3.8,3.8,0,0,0,3.6,2.11L35.06.87"/><path class="cls-4" d="M32.15,5.89s2,2.23,3.05,1.92"/><path class="cls-4" d="M32.15,2.36c.37.12,1.14,1.86,3.05,1.92"/><path class="cls-4" d="M31.84,10.78s1.89,2,3.36,1.92"/><path class="cls-4" d="M32.46,14.93A6.87,6.87,0,0,0,35.2,16.6"/><path class="cls-4" d="M32.46,19a6.19,6.19,0,0,0,2.89,1.79"/><path class="cls-4" d="M32.83,24a7.87,7.87,0,0,0,2.6,1.86"/><path class="cls-4" d="M32.15,29.05a10,10,0,0,0,3.11,2.12"/><path class="cls-3" d="M32.46,33.76a2.48,2.48,0,0,0,0,3"/><path class="cls-5" d="M35.15,34.82s-1.83.94.84,3"/><path class="cls-3" d="M32.47,36.87s-1,2.07.35,2.58"/><circle class="cls-6" cx="34.1" cy="34.1" r="33.6"/></g></g></svg>