<svg xmlns="http://www.w3.org/2000/svg" xmlns:xlink="http://www.w3.org/1999/xlink" viewBox="0 0 158.12 158.12"><defs><style>.cls-1{fill:url(#linear-gradient);}.cls-2{fill:#010101;}.cls-3{fill:#bcbb4c;}.cls-4{fill:#dcda73;}.cls-5{fill:#fff;}</style><linearGradient id="linear-gradient" x1="79.6" y1="160.73" x2="78.52" y2="-2.64" gradientUnits="userSpaceOnUse"><stop offset="0" stop-color="#414042"/><stop offset="0.49" stop-color="#3f3e40"/><stop offset="0.66" stop-color="#383839"/><stop offset="0.79" stop-color="#2d2c2e"/><stop offset="0.89" stop-color="#1c1c1d"/><stop offset="0.98" stop-color="#070707"/><stop offset="1"/></linearGradient></defs><g id="Capa_2" data-name="Capa 2"><g id="Layer_2" data-name="Layer 2"><circle class="cls-1" cx="79.06" cy="79.06" r="79.06"/><path class="cls-2" d="M26,60.34c-.1-2.41-3.32-12.59-.3-13.67,2.12-.75,7.88,6.55,7.88,6.55a46.4,46.4,0,0,1,9,.11c2.2-4,6.44-7.54,8.2-7,2.44.78.57,8.47.26,9.9s.1,3.43.27,6a21.29,21.29,0,0,0,9.49,3c5.08.4,10.16-.49,15.24-1,12.39-1.14,32.2,4.68,36.76,2.29s9.62-12.09,10.73-20.41a49,49,0,0,0-1.73-20.91c-1.56-4.94,4.5-2.05,6.21,3.36a30.57,30.57,0,0,1,1.38,10c-.66,26.48-8.5,24-7.57,36.65.43,5.84.77,12.09-2.13,17.18-1.29,2.25-3.17,4.18-4.09,6.6-1.3,3.47-.56,10.95.08,14.13.93,4.6-2.12,9.87-3.25,17.08-.23,1.44-.69,4-4.33,4-1.45,0-4.85-.66-3.79-3.66.47-1.34,2.58-2.86,3.27-4.1,1.45-2.61,2.44-5.68,1.89-8.64a8.83,8.83,0,0,0-1.17-2.32c-3.17,4.29-7.67,8.6-11.06,12.14-1.55,1.62-2.65,2.34-4.76,2.23-1.33-.07-3.41-.05-4-1.35a4,4,0,0,1,.4-4.16,2.51,2.51,0,0,1,3.6-.29,25.49,25.49,0,0,0,4.23-5.17,9.91,9.91,0,0,0,1.29-6.71c-.91-4.35-5.47-7-6.63-11-3.8,0-7.8.72-10.79.89a34.39,34.39,0,0,0-13.8,3.51q-.6,11.47-1.61,22.92a9.79,9.79,0,0,1-1,4.11,5,5,0,0,1-5.59,2.18c-2.06-.62-3.92-.42-3.68-2.66s3.32-1.64,4.36-2.76A5.52,5.52,0,0,0,60.35,125a26.54,26.54,0,0,0-1.06-4.44,38,38,0,0,1-1.16-7.94c-4.34,5.31-7.35,11.92-11.25,17.69a15.43,15.43,0,0,1-3.22,3.7,6.32,6.32,0,0,1-4.58,1.44,4,4,0,0,1-3.48-3,3,3,0,0,1,2.54-3.52,17.18,17.18,0,0,0,2,.1c1.24-.21,1.94-1.52,2.46-2.67,2.11-4.76,4.25-9.59,5.05-14.73s.11-10.74-3-14.92c-1.53-2-3.57-3.67-5.06-5.75-3.85-5.36-12.47-18-13.5-24.13h0C25.48,64.25,26.06,62.07,26,60.34Z"/><path class="cls-3" d="M34.64,64.94a2.71,2.71,0,0,1-2.41,1.2,2.51,2.51,0,0,1-2.42-2.43,2.13,2.13,0,0,1,2.63-1.86A3.28,3.28,0,0,1,34.64,64.94Z"/><path class="cls-4" d="M33.91,65.26a1.71,1.71,0,0,0,.1-1.5.89.89,0,0,0-.21-.41.34.34,0,0,0-.42-.06.42.42,0,0,0-.13.39,2,2,0,0,1,0,.42c0,.36-.43.58-.79.65a2.39,2.39,0,0,1-2.39-1,2.45,2.45,0,0,0,2.95,2A1.43,1.43,0,0,0,33.91,65.26Z"/><path class="cls-2" d="M32.83,63.8c0,1.07-.23,1.94-.52,1.94s-.53-.87-.53-1.94.24-1.95.53-1.95S32.83,62.72,32.83,63.8Z"/><path class="cls-5" d="M32,63.15a.48.48,0,1,1-.48-.51A.49.49,0,0,1,32,63.15Z"/><path class="cls-3" d="M40.84,64.94a2.73,2.73,0,0,0,2.42,1.2,2.51,2.51,0,0,0,2.42-2.43,2.13,2.13,0,0,0-2.63-1.86A3.29,3.29,0,0,0,40.84,64.94Z"/><path class="cls-4" d="M45.37,64.31A1.6,1.6,0,0,0,45,63.09c-.13-.19-.35-.39-.57-.31a.44.44,0,0,0-.25.37,3.69,3.69,0,0,0,0,.47,1.54,1.54,0,0,1-.91,1.29,4.08,4.08,0,0,1-1.62.33,2.56,2.56,0,0,0,1.71.49A2.52,2.52,0,0,0,45,65,1.37,1.37,0,0,0,45.37,64.31Z"/><path class="cls-2" d="M43.86,63.66c0,1-.25,1.8-.55,1.8s-.55-.81-.55-1.8.24-1.81.55-1.81S43.86,62.66,43.86,63.66Z"/><path class="cls-5" d="M43,63.15a.5.5,0,0,1-.49.52.5.5,0,0,1-.48-.52.51.51,0,0,1,.48-.53A.51.51,0,0,1,43,63.15Z"/></g></g></svg>