<svg xmlns="http://www.w3.org/2000/svg" viewBox="0 0 68.2 68.2"><defs><style>.cls-1{fill:#ddaf99;}.cls-2{fill:#211d1c;}.cls-3{fill:none;stroke:#231f20;stroke-linecap:round;stroke-linejoin:round;}</style></defs><g id="Capa_2" data-name="Capa 2"><g id="Layer_2" data-name="Layer 2"><path class="cls-1" d="M34.38,17.84l5.12,1.78,8.85,3.76,4.06,1.82,3.53,2s.87,2.8-.2,3.67a5.16,5.16,0,0,0-1.45,1.79l-1.7.9s-.17,1.15-.18,1.36a3.74,3.74,0,0,1-.58,1.63,4.82,4.82,0,0,1-2.4.52L45,36.16l-6.08-1-5.55-.75-5.07-.35,1.25,1.7c.14.19,1.36,2.2,1.36,2.2l0,1.47a6.47,6.47,0,0,1-1.38.52,12.34,12.34,0,0,1-1.64-.47c-.39-.17-2.27-1.26-2.27-1.26l-3-2.57s-1.67-1.93-2-2.42-2-2.87-2.28-3.37-1-3.68-1-3.68l.81-1.34,6.07-4.12,4.92-2,5.31-1.28Z"/><path class="cls-2" d="M25.48,1.61a31.26,31.26,0,0,0-16,10.19l3.75,6.35,4.42,7.23,4.7-3.61,3.18-1.64,3.59-1.35,3.64-.88,1.39-.69L25.48,1.61"/><path class="cls-3" d="M9.28,11.46c.18.75,8.32,13.92,8.32,13.92s5.15-5.91,16.78-7.88L25.57,1.38"/><path class="cls-3" d="M17.6,25.38S16.28,27,18.91,30.93s5.06,6.73,8.53,8.42,4.59-.19,2.63-2.82-3.66-5.06-3.66-5.06"/><path class="cls-3" d="M34.38,17.5s18.75,7.69,21,9.19.33,5.06-.7,5.06"/><path class="cls-3" d="M43.47,26.22c1,.54,11.21,2.49,11.21,4.71s-1.15,2.56-2.09,2.65"/><path class="cls-3" d="M41.32,29.46c.36,0,10.53,2.36,10.92,4.12.57,2.58-.13,4.18-4.08,3.23a194.5,194.5,0,0,0-20-2.9"/><circle class="cls-3" cx="34.1" cy="34.1" r="33.6"/></g></g></svg>