<svg xmlns="http://www.w3.org/2000/svg" viewBox="0 0 78.08 68.2"><defs><style>.cls-1{fill:#791314;}.cls-2{fill:#fff;stroke-miterlimit:10;}.cls-2,.cls-4{stroke:#231f20;}.cls-3{fill:#231f20;}.cls-4{fill:none;stroke-linecap:round;stroke-linejoin:round;}</style></defs><g id="Capa_2" data-name="Capa 2"><g id="Layer_2" data-name="Layer 2"><path class="cls-1" d="M28.18,41.3c-.09,0-19.16,1.48-15.08,4.58S27,50,22.94,52.56,4.87,54,.65,56.85s13.22,3.65,19.13,3.51,36.72.73,37.07-2.71S38.91,54.27,63,52.91c9.58-.54,19.14-1.31,13.3-3.42S62.53,48.2,60.91,46.72,67,46,71.75,44.29C78.58,41.9,56.54,40.86,28.18,41.3Z"/><circle class="cls-2" cx="46.13" cy="29.33" r="14.84"/><path class="cls-3" d="M47.73,18.55c-.19-.14-1.17,13,7.73,20C55.46,38.52,58.7,27.18,47.73,18.55Z"/><path class="cls-1" d="M40.66,31.1c-.63.14-1.25.31-1.85.5a4.24,4.24,0,0,0-1.62.8c-.08.11-.07.08,0,.21l.31.36.62.73,1.25,1.46c.41.48.84,1,1.23,1.49a7.08,7.08,0,0,1,.56.83,2.79,2.79,0,0,1,.24.49.87.87,0,0,1,.07.35.64.64,0,0,1,0,.28.65.65,0,0,1-.19.24c-1.08.72-2.19,1.39-3.32,2l.07-.11c-.06.28-.11.56-.18.85h-.08c0-.29,0-.58,0-.87v-.05l.07-.06c1-.84,2-1.63,3-2.37h0s0,0,0,0l0,.06s0,.05,0,0,0-.06,0-.12a1.88,1.88,0,0,0-.16-.37c-.14-.27-.31-.53-.48-.79-.33-.53-.72-1.05-1.11-1.56L37.75,34l-.58-.77-.3-.38a.7.7,0,0,1-.11-.33.51.51,0,0,1,.15-.32,4.27,4.27,0,0,1,1.84-.77A18,18,0,0,1,40.64,31Z"/><path class="cls-1" d="M45.09,37.14a4,4,0,0,1,.73,1.91,3.26,3.26,0,0,1-.54,2.06A7.54,7.54,0,0,1,44,42.71c-.26.26-.3.22-.28.57a1.57,1.57,0,0,0,.3.86l0,.06a1.28,1.28,0,0,1-.78-.78,1.05,1.05,0,0,1-.08-.66,1.45,1.45,0,0,1,.32-.56c.44-.52.9-.94,1.33-1.45a2.73,2.73,0,0,0,.65-1.69A3.81,3.81,0,0,0,45,37.18Z"/><path class="cls-1" d="M42.36,33.54c-.46.44-.91.88-1.34,1.32a4.35,4.35,0,0,1-.62.66c-.23.2-.5.28-.63.52l-.06.05c-.22-.15-.14-.43-.1-.61a1.76,1.76,0,0,1,.25-.47,2.43,2.43,0,0,1,.78-.61,11.42,11.42,0,0,1,1.68-.93Z"/><path class="cls-1" d="M33.94,27.51c0,.5,0,1,0,1.49a13.2,13.2,0,0,0,.14,1.45.75.75,0,0,0,0,.16,2,2,0,0,1,0,.27,1.63,1.63,0,0,1-.1.46,3.39,3.39,0,0,1-.39.73,4.43,4.43,0,0,1-1.07,1.13l.11-.21a7.89,7.89,0,0,1-.51,1.43h-.08a8.68,8.68,0,0,1-.09-1.52v-.07l.11-.13c.31-.37.65-.71,1-1.06a2.8,2.8,0,0,0,.41-.53.73.73,0,0,0,.09-.26.31.31,0,0,0,0-.1,1.66,1.66,0,0,1,0-.22A8.63,8.63,0,0,1,33.67,29c0-.5.12-1,.19-1.49Z"/><path class="cls-1" d="M37.67,28.56a15.75,15.75,0,0,1-1.77,1.69,5.65,5.65,0,0,1-.51.39,1.07,1.07,0,0,1-.44.16.91.91,0,0,1-.48-.15,1.74,1.74,0,0,1-.68-1.16l.06,0c.39.2.72.45,1,.55s0,0,.22,0,.34-.15.51-.23c.68-.39,1.37-.82,2.06-1.24Z"/><path class="cls-1" d="M34.15,38.07c.49-.36,1-.74,1.47-1.09l-.07.28a10.54,10.54,0,0,1-.54-.92,6.13,6.13,0,0,1-.47-1,1.48,1.48,0,0,1-.09-.62.8.8,0,0,1,.15-.44.54.54,0,0,1,.29-.21,4.08,4.08,0,0,0,.81-.58l.07,0a1.75,1.75,0,0,1-.48,1c-.07.06-.2.18-.11.12s0,0,0,.05,0,.25.07.41a9,9,0,0,0,.65,1.91l.09.2-.17.08c-.54.28-1.1.53-1.65.8Z"/><path class="cls-1" d="M37.66,36.82a8.53,8.53,0,0,1-.91.45.91.91,0,0,1-.47.16.86.86,0,0,1-.54-.23v-.08a.92.92,0,0,1,.41-.42.9.9,0,0,1,.49,0,6.86,6.86,0,0,1,1,.07Z"/><path class="cls-1" d="M57.37,19.7c-.4,0-.82,0-1.22.05a5.63,5.63,0,0,0-.59.05.92.92,0,0,0-.25.06l0,0-.06.08a7.92,7.92,0,0,1-.69,1,3.75,3.75,0,0,1-1,.77l-.06,0a3.57,3.57,0,0,1,.47-1.19,4.52,4.52,0,0,1,.84-.92s.08-.08.16-.14a.54.54,0,0,1,.25-.09,2.18,2.18,0,0,1,.35,0c.22,0,.43,0,.64.06.41.07.81.16,1.21.25Z"/><path class="cls-1" d="M58.62,21.27l.17,2,0,.19h-.22c-.9.05-1.79.14-2.68.19l.39-.39a6.78,6.78,0,0,1-.36,2.15h-.07a6.76,6.76,0,0,1-.35-2.15v-.42l.4,0c.89,0,1.78.13,2.68.18l-.21.21.17-2Z"/><path class="cls-1" d="M57.35,26a5.92,5.92,0,0,0,.07-1.38,5.29,5.29,0,0,1-.11-.61c0-.19,0-.38,0-.69l.06,0a.93.93,0,0,1,.64.58,1.32,1.32,0,0,1,0,.81A3.69,3.69,0,0,1,57.41,26Z"/><path class="cls-1" d="M57.73,30.37A8.28,8.28,0,0,1,59.46,30a1.88,1.88,0,0,1,.94,0,1.11,1.11,0,0,1,.45.32.46.46,0,0,1,.07.58l-.08,0a.31.31,0,0,0-.3-.14h-.33a6.8,6.8,0,0,1-.77-.17c-.55-.08-1.13-.14-1.7-.18Z"/><path class="cls-1" d="M59.35,27.87c.16.39.31.79.44,1.19a1.43,1.43,0,0,1,.17.6,1.27,1.27,0,0,1-.24.66h-.08a1.2,1.2,0,0,1-.42-.56,1.44,1.44,0,0,1,0-.62c0-.42,0-.84.07-1.27Z"/><path class="cls-1" d="M57.74,35.16a6.24,6.24,0,0,1,1,.05.88.88,0,0,1,.46.07.93.93,0,0,1,.34.47l0,.07a.8.8,0,0,1-.55.17c-.16,0-.28-.13-.41-.22a7,7,0,0,1-.8-.54Z"/><path class="cls-1" d="M44.54,41.54c.79-.12,1.6-.23,2.36-.39a1.58,1.58,0,0,0,.46-.16s0,0,0,0a.34.34,0,0,0-.07.29c0,.09,0,0,0,0l0-.09a.52.52,0,0,1,0-.17,1,1,0,0,1,.12-.44,2,2,0,0,1,1-.86l0,.05c-.1.43-.28.8-.36,1.11,0,.07,0,.14,0,.14s0,0,0,0v0s0,0,0,.08a.46.46,0,0,1-.1.43.78.78,0,0,1-.17.12,2.05,2.05,0,0,1-.72.1,15.16,15.16,0,0,1-2.44-.14Z"/><path class="cls-1" d="M42.37,39.79q.16.75.27,1.5l0,.3h-.75a1.42,1.42,0,0,1-.3,0,1.4,1.4,0,0,1-.24-.06c-.06,0-.15,0-.26.07h-.07a.4.4,0,0,1,.07-.53.86.86,0,0,1,.47-.23,1.43,1.43,0,0,1,.82.16l-.39.3q.11-.75.27-1.5Z"/><path class="cls-1" d="M39,24.68c-1-.06-1.93-.12-2.9-.21h.1c-.37.11-.73.2-1.1.28a2.42,2.42,0,0,1-1.29,0,.66.66,0,0,1-.25-.18.72.72,0,0,1-.13-.36s0-.1,0-.18a3.48,3.48,0,0,0-.14-.47c-.1-.34-.24-.68-.35-1.05l.06,0a3.71,3.71,0,0,1,.81.82,2.28,2.28,0,0,1,.3.53,1.19,1.19,0,0,1,.09.36s-.11-.18-.06-.14a3.25,3.25,0,0,0,.89.05c.36,0,.72-.07,1.07-.12h.1c1,.19,1.89.42,2.83.64Z"/><path class="cls-1" d="M36.71,17.86c.82.5,1.64,1,2.44,1.5l.33.22-.38.18a2.36,2.36,0,0,0-.51.33c-.06.07-.09.14-.08.14s0,0,.05,0a6.15,6.15,0,0,0,1.19.39,14.75,14.75,0,0,1,2.59,1v.08a7.76,7.76,0,0,1-2.8-.35,5.52,5.52,0,0,1-.67-.27,2.63,2.63,0,0,1-.7-.41.62.62,0,0,1-.21-.57.83.83,0,0,1,.29-.44,2.55,2.55,0,0,1,.7-.35l0,.39c-.75-.58-1.48-1.21-2.22-1.81Z"/><path class="cls-1" d="M40.05,23c-.2-.37-.38-.75-.54-1.13a1.42,1.42,0,0,1-.22-.58,1.32,1.32,0,0,1,.19-.67l.07,0a1.21,1.21,0,0,1,.47.52,1.39,1.39,0,0,1,.07.61c0,.42,0,.83,0,1.26Z"/><circle class="cls-4" cx="43.99" cy="34.1" r="33.6"/></g></g></svg>