<svg xmlns="http://www.w3.org/2000/svg" viewBox="0 0 104.44 106.06"><defs><style>.cls-1{fill:none;stroke:#000;stroke-miterlimit:10;}</style></defs><g id="Capa_2" data-name="Capa 2"><g id="Layer_1" data-name="Layer 1"><path class="cls-1" d="M6.75,31.06c1.5-.19,18.75,0,18.75,0V41H6.75"/><polyline class="cls-1" points="15.19 30.98 15.19 19.25 36.94 19.25 36.94 30.98 25.5 31.06"/><polyline class="cls-1" points="36.94 19.25 57.94 19.25 57.94 8.94 26.06 8.94 26.06 19.25"/><polyline class="cls-1" points="47.25 8.94 47.25 0.5 65.81 0.5 65.81 8.94 57.94 8.94"/><polyline class="cls-1" points="57.94 19.25 80.63 19.25 80.63 8.94 65.81 8.94"/><polyline class="cls-1" points="90.94 28.44 69.28 28.44 69.28 19.25"/><polyline class="cls-1" points="95.44 38.75 80.63 38.75 80.63 28.44"/><polyline class="cls-1" points="14.06 41 14.06 52.63 0 52.63"/><line class="cls-1" x1="18.56" y1="86.19" x2="85.69" y2="86.19"/><line class="cls-1" x1="10.69" y1="74.94" x2="98.62" y2="74.94"/><line class="cls-1" x1="59.86" y1="63.78" x2="100.69" y2="63.78"/><line class="cls-1" x1="5.25" y1="63.78" x2="41.75" y2="63.78"/><line class="cls-1" x1="23.44" y1="63.78" x2="23.44" y2="74.94"/><line class="cls-1" x1="41.25" y1="63.78" x2="41.25" y2="74.94"/><line class="cls-1" x1="60.37" y1="74.94" x2="60.37" y2="63.78"/><line class="cls-1" x1="79.31" y1="63.78" x2="79.31" y2="74.94"/><line class="cls-1" x1="50.81" y1="74.94" x2="50.81" y2="86.19"/><line class="cls-1" x1="69.28" y1="74.94" x2="69.28" y2="86.19"/><line class="cls-1" x1="86.81" y1="74.94" x2="86.81" y2="86.19"/><line class="cls-1" x1="32.06" y1="74.94" x2="32.06" y2="86.19"/><path class="cls-1" d="M91.87,38.75V50.37h12.57"/><line class="cls-1" x1="98.62" y1="63.31" x2="98.62" y2="50.37"/><line class="cls-1" x1="4.12" y1="52.62" x2="4.12" y2="63.78"/><line class="cls-1" x1="42" y1="86.19" x2="42" y2="97.62"/><line class="cls-1" x1="61.5" y1="86.19" x2="61.5" y2="97.62"/><line class="cls-1" x1="23.44" y1="86.19" x2="23.44" y2="97.62"/><line class="cls-1" x1="20.62" y1="97.62" x2="78.37" y2="97.62"/><line class="cls-1" x1="77.44" y1="86.19" x2="77.44" y2="97.62"/><line class="cls-1" x1="52.12" y1="97.62" x2="52.12" y2="106.06"/></g></g></svg>