<svg xmlns="http://www.w3.org/2000/svg" viewBox="0 0 65.38 47.65"><defs><style>.cls-1{fill:#010101;}.cls-2{fill:#a4a336;}.cls-3{fill:#fff;}</style></defs><g id="Capa_2" data-name="Capa 2"><g id="Layer_1" data-name="Layer 1"><path class="cls-1" d="M1.11,37.61a4.71,4.71,0,0,1,1-.51,1.43,1.43,0,0,0,0-.22,10.58,10.58,0,0,0-.07-2.75,4,4,0,0,1,.52-2.65,2.41,2.41,0,0,1,.95-.75,9.55,9.55,0,0,1,0-1.07,22.91,22.91,0,0,1,1.09-5.21c.68-2.36,2.51-3.62,3.2-6A7.16,7.16,0,0,1,6.75,16a7,7,0,0,1,.13-3.59c.41-1,.28-1.18.76-2.17.09-.18.17-.36.25-.54C7.41,7.92,6.94.29,7.7,0s3.84,1.35,5.7,2.84a14.44,14.44,0,0,1,2.85-.3A12.38,12.38,0,0,1,23,3.93,22.49,22.49,0,0,1,26.2,2.27c.41-.11,1.91-.75,2,.3a64.7,64.7,0,0,1-.68,10l0,.1c4.66.3,11.56-2.09,20.49.63,13.29,4.06,17,11.93,17.28,14.57a8,8,0,0,1-2.68,6.84c-2.06,1.94-6.43,2.49-9,3.83a38.73,38.73,0,0,0-7.48,4.54A31.87,31.87,0,0,1,43,45.77a13.77,13.77,0,0,1-6.5,1.86c-1.09.08-2.38,0-3-.8s-.15-1.86.42-2.66c2.45-3.46,6.83-5.5,11.15-7l.32-.11c-2.72.06-5.46.06-8.15.23-4.91.29-9.87,1.16-14.77,1.51-.7.27-1.42.47-2.12.71a34.25,34.25,0,0,1-3.66,1.24l-.29.05a1.46,1.46,0,0,1-.42.32,3.24,3.24,0,0,1-1.16.28A15.9,15.9,0,0,1,9.34,41a2.3,2.3,0,0,1-.52-2.37,4.22,4.22,0,0,1,.84-.9c-.33-.11-.67-.22-1-.35a3.36,3.36,0,0,1-1.15,2,1,1,0,0,1,0,.6,1.54,1.54,0,0,1-1.13.82,10.54,10.54,0,0,1-4.22.32A2.44,2.44,0,0,1,.11,40,2.12,2.12,0,0,1,1.11,37.61Z"/><path class="cls-2" d="M18.9,13.39a1.69,1.69,0,0,1,1.78-1.32c1.61-.06,1.71.91,1.71.91s-.33,1.42-1.51,1.47A2,2,0,0,1,18.9,13.39Z"/><path class="cls-1" d="M19.32,12.44a1.9,1.9,0,0,1,1.36-.54,2.52,2.52,0,0,1,.94.11,1.3,1.3,0,0,1,.11.49,1.21,1.21,0,1,1-2.41,0Z"/><path class="cls-3" d="M20.44,12.9a.29.29,0,1,0,.57,0,.29.29,0,1,0-.57,0Z"/><path class="cls-2" d="M14.26,12.93a1.69,1.69,0,0,0-1.78-1.32c-1.61-.06-1.71.91-1.71.91s.33,1.42,1.51,1.47A2,2,0,0,0,14.26,12.93Z"/><path class="cls-1" d="M13.67,12a1,1,0,0,1,0,.24,1.19,1.19,0,1,1-2.28-.46,2.32,2.32,0,0,1,1.06-.17A2,2,0,0,1,13.67,12Z"/><path class="cls-3" d="M12.42,12.5a.3.3,0,1,0,.3-.31A.29.29,0,0,0,12.42,12.5Z"/></g></g></svg>