<svg xmlns="http://www.w3.org/2000/svg" viewBox="0 0 68.2 68.2"><defs><style>.cls-1{fill:#37150d;}.cls-1,.cls-2,.cls-4{stroke:#231f20;}.cls-1,.cls-2{stroke-miterlimit:10;}.cls-2{fill:#232021;}.cls-3{fill:#231f20;}.cls-4{fill:none;stroke-linecap:round;stroke-linejoin:round;}</style></defs><g id="Capa_2" data-name="Capa 2"><g id="Layer_2" data-name="Layer 2"><path class="cls-1" d="M38.18,11.58s-23,42.89-21.85,43.57,4.32,3.27,5.82,1.6,11.34-26.7,13.59-30.92,6.19-12.93,5.81-13.78S38.93,10.18,38.18,11.58Z"/><path class="cls-2" d="M29.74,20.58C30.05,20.79,41,28.83,47,34.93a25.06,25.06,0,0,0,7.78-15s-16.22-5.07-21.65-7.5C33.12,12.43,28,19.42,29.74,20.58Z"/><path class="cls-3" d="M19.07,52.56c.63.6,1.25,1.23,1.84,1.87a5,5,0,0,1,.86,1,3.37,3.37,0,0,1,.42,1.31l-.08.06A3.14,3.14,0,0,1,21,56a4.67,4.67,0,0,1-.7-1.1c-.45-.75-.88-1.51-1.28-2.29Z"/><path class="cls-3" d="M20.44,51.15c.56.59,1.1,1.18,1.62,1.8a4.44,4.44,0,0,1,.74.94,2.73,2.73,0,0,1,.29,1.24l-.08.06a2.82,2.82,0,0,1-1-.75,4.28,4.28,0,0,1-.58-1c-.37-.71-.71-1.44-1-2.18Z"/><path class="cls-3" d="M21.77,49.08c.52.55,1,1.11,1.49,1.69a3.89,3.89,0,0,1,.68.89,2.59,2.59,0,0,1,.22,1.18l-.09,0a2.46,2.46,0,0,1-1-.69,4,4,0,0,1-.52-1q-.48-1-.9-2.07Z"/><path class="cls-3" d="M23,47.39c.48.46.94.94,1.38,1.43a2.83,2.83,0,0,1,.63.75,2.1,2.1,0,0,1,.16,1.06l-.08,0a2,2,0,0,1-.92-.55,2.9,2.9,0,0,1-.46-.87c-.28-.59-.55-1.19-.79-1.81Z"/><path class="cls-3" d="M24.05,45.46c.45.44.88.9,1.28,1.37.2.23.48.42.58.72a1.86,1.86,0,0,1,.11,1l-.08,0a1.87,1.87,0,0,1-.87-.53,2.27,2.27,0,0,1-.41-.84c-.26-.56-.49-1.14-.7-1.74Z"/><path class="cls-3" d="M25,42.89l.64.73.62.76a2.73,2.73,0,0,1,.59.78A2.06,2.06,0,0,1,27,46.23l-.09.06a2.11,2.11,0,0,1-.89-.61,2.8,2.8,0,0,1-.42-.89l-.37-.92a6.22,6.22,0,0,1-.3-1Z"/><path class="cls-3" d="M26,41.2c.43.4.85.81,1.24,1.24.19.22.46.38.56.66a1.77,1.77,0,0,1,.1,1l-.08,0a1.6,1.6,0,0,1-.85-.47,2.17,2.17,0,0,1-.4-.77q-.36-.78-.66-1.62Z"/><circle class="cls-4" cx="34.1" cy="34.1" r="33.6"/></g></g></svg>