<svg xmlns="http://www.w3.org/2000/svg" viewBox="0 0 220.98 224"><defs><style>.cls-1{fill:none;stroke:#000;stroke-miterlimit:10;}</style></defs><g id="Capa_2" data-name="Capa 2"><g id="Layer_1" data-name="Layer 1"><path class="cls-1" d="M59,51.89c3.37,5.91-13.5,21.56-12.66,27.66S38.42,98.3,36.07,104.2s-.18,7.78,0,13.6-1.52,10.68,4.39,11.62,8.43,2.25,8.43,2.25-3.37,13.69-.84,16.74,4.22,1.36,5.06,5.57-8.85,11.16,4.44,17,8.22.75,13.28,5.82,7.6,8.25,9.28,8.34.85-.94,13.5-4.22,10.13-11.91,16.88-4.22,4.22,12.75,10.12,15.28-.84,9.28,17.72,6.75,21.1,4.22,24.47-4.22,5.91-10.31,5.06-13.59,4.55-6.47.17-9.94c0,0-14.42-22.54-2.7-22.54,3.28,0,6.19,14.15,11,0,.78-2.27,7.83,1.82,5.86-19-2.16-22.83-1.47-21.35-2.53-24.19-.57-1.5-4.2-4.3-4.22-5.25-.17-7.59-6.75-3.75.84-12s6.6-4.87,6.75-12.46c.27-14-.84-10.13-5.91-11.82s-4.59-.28-5.06-1.68c-2.67-8-6.84-2.72-6.75-5.07.43-10.79-.84-11.81-8.44-14.34S146.77,33.33,140,35.86s-5.18,2.37-6.75,2.53c-16.88,1.69-1.69,13.5-16.88,1.69s-5.81-19.85-10-18.16S95.68,24.05,95.3,25.73C92.84,36.82,55.64,46,59,51.89Z"/><path class="cls-1" d="M20.11,28.73c-3,3.38,0,15.6,4.13,21.75,0,0,22.87,2.25,24,1.5s10.39,5.21,10.39,5.21"/><path class="cls-1" d="M2.11,51.23c0-1.12,4.88-7.92,6-6.77s16.13,6,16.13,6"/><polyline class="cls-1" points="64.77 45.8 53.4 46.97 50.3 50.06 48.24 51.98"/><path class="cls-1" d="M107.58,22.23v-10L115.69,8S117,.28,118.5,1.69,126,3.23,126,3.23V0"/><path class="cls-1" d="M99.24,7.31s2.39,4.78,3.23,4.92,5.11,0,5.11,0"/><polyline class="cls-1" points="107.58 18.56 111.75 16.88 113.58 19.13"/><path class="cls-1" d="M144.18,35.44l-1.49-5.35a25.88,25.88,0,0,0,2.39-2.25c.56-.7-2.11-6-2.39-6.15s-6.33-4.82-6.33-4.82"/><path class="cls-1" d="M156.05,18s-8.72,4.5-8.86,4.92-.28,2.53-.42,3.24-1.69.81-1.69.81"/><path class="cls-1" d="M130,38.94s-4.57-7.86-4-8.28,8.86-.85,8.86-.85l1.54-3.65s4.64,1.12,5.07,1.4a10.51,10.51,0,0,1,1.26,2.53"/><path class="cls-1" d="M165.33,57s2.67-5.76,3-6.33-1.69-7.73-1.48-7.87-1.56,0,1.5-.7a22.59,22.59,0,0,0,4.48-1.41l6.75-5.2-2.25-6.61"/><polyline class="cls-1" points="190.65 58.08 182.07 58.08 183.09 61.88 182.07 63.98 182.07 64.97"/><path class="cls-1" d="M184.32,49.78s-1.9,3.66-1.23,3.94,2.49,2,2.35,2.39-.56,2-.56,2"/><path class="cls-1" d="M182.07,82l5.2,1.91s.14,5.07,1,5.35,5.07,1.54,5.49,1.12,3.09-3.51,4.64-4.15,6.05,0,6.05,0l2.39,5.42"/><path class="cls-1" d="M198.66,77.48s-1.41,6.33-.84,7.18a3.19,3.19,0,0,1,.56,1.61"/><path class="cls-1" d="M175.05,97.35s6.17-2.71,6-3.27-1.54-7.22-1.54-7.22L179,85.13"/><path class="cls-1" d="M180.69,111.91h8l2.67,6.07s6.75,3,8,.57.14-4.78,3-4.5,6.75.28,6.75.28l10.54-5.21-9-2.67"/><path class="cls-1" d="M192.89,125.86s-2.81,7.17-4.07,4.92-5.73-9.56-5.73-9.56l-1.54,1"/><polyline class="cls-1" points="182.39 131.67 184.03 131.22 184.03 127.97 186.84 127.41"/><path class="cls-1" d="M188.82,130.78l4.07,3.38a7.3,7.3,0,0,1,0,2.53c-.28.42,5.77,2.25,5.77,2.25"/><path class="cls-1" d="M188.82,146l8,9.84s-14,1.55-14.44,0-6-7.4-6-7.4l-4.41-4-4.36,2-6.25,3.89"/><path class="cls-1" d="M201.61,150.46c-.84-.69-5.76-.57-5.9,0s1.12,5.35,1.12,5.35"/><path class="cls-1" d="M183.89,163.12s-1-4.78,0-4.92a25.12,25.12,0,0,1,3.33,0l.9-1.73"/><path class="cls-1" d="M169.75,173.69h3.88a17.93,17.93,0,0,1,3.09,1.39,25,25,0,0,1,1.55,3.94l5.19-4.79,3.76,1,2.72,1.13"/><polyline class="cls-1" points="184.61 185.2 184.61 181.13 181.55 180.56 178.41 180.56 178.27 179.01"/><path class="cls-1" d="M51.87,68.23,50.68,82s1,13.73,0,15.31,2.71,9.67,2.43,11.77S48.24,115,48.24,115l3.47,14.5-2.82,2.13-8,2.06v3.52l-2.18,1.69"/><path class="cls-1" d="M68.7,174.71l-1.52-5.82-7.6-5.77-5.06-6.65-1.39-5s-7.05-1-8.45-1.47-2.27.05-5.92.48-12.65-2.66-12.65-2.66L21.61,150l-8.43,7.66"/><path class="cls-1" d="M80.11,185.11s-5.34,2.06-5.06,3.19,2.24,8.72,2.53,9.56S75,201,75,201s-.55-.84-2,0-8.31,0-8.31,0"/><path class="cls-1" d="M75.89,210.8c-.56-1.13-.84-4.22,0-5.07a4.68,4.68,0,0,0,1.13-2L75,201"/><polyline class="cls-1" points="84.61 197.01 82.08 197.01 80.11 194.76 76.32 193.22"/><path class="cls-1" d="M105.7,173.69s-7.31,5.61-6.46,8.42,1.4,13,1.4,13-4.07.49-1.47,1.9,3.44.83,4,2.24,1.12.19,1.4,2.07-3.65,4.54-3.65,4.54"/><polyline class="cls-1" points="109.03 197.01 105.7 193.22 104.02 197.01 100.64 195.12"/><path class="cls-1" d="M129.88,199.21l-5.61,2.12a44.63,44.63,0,0,1,2.81,4.54c0,.43-2.81,3.8-2.81,3.8a3,3,0,0,1,0,2.53c-.56,1.69,3.08,5.63,2.81,6.47s-2.87,5.06-2.87,5.06"/><path class="cls-1" d="M117.65,189.78s-4.91,2.17-4.07,3.44a29.18,29.18,0,0,0,4.07,3.8s-2.35,3.65-2.08,3.93-2.24,1.41,0,2.53a10.26,10.26,0,0,0,4.2,1.13l4.5-3.28"/><path class="cls-1" d="M109,208.83c.61-.85-.51-5.91,1.18-5.63s1.19,2.53,3.27,1.41l2.09-1.13"/><path class="cls-1" d="M178.07,199.21l-10.49-4.09s-2.53.77-2.25,1.9-1.4,2.19-1.4,2.19l-2.6-1.94"/><path class="cls-1" d="M21.61,169.73S32,164.11,32,163.12s-3.09-6.62-3.09-6.62L37.36,154l-7.17-11.15,8.57-3.89-5.33-4.08-9.19-1.13"/><polyline class="cls-1" points="14.58 137.25 24.24 141.05 26.11 147.8"/><path class="cls-1" d="M43,169.73s2.25-11,3.09-11.81,2.52-2.71,4.6-2.11S53.11,154,53.11,154"/><path class="cls-1" d="M14.58,65l15.61,5.19s6.89,2,7.17,2.81a23.68,23.68,0,0,1,0,4.5s2.65,1.13,3.58,1.41.92-1.69,2.05,0A6.27,6.27,0,0,1,44.11,82l1.34,3.09"/><polyline class="cls-1" points="26.11 58.08 28.93 61.53 27.52 64.97 30.01 64.97 30.01 68.23 30.19 70.17"/><path class="cls-1" d="M37.32,101.51c-.17.33-3.61-4.34-5.58-2.93a38.11,38.11,0,0,1-5.63,3H24.24l-3.89-1.61s-.23-2.15-1.45-1.61-2.35,3.22-2.35,3.22L5.86,105.89l-2-3.83"/><path class="cls-1" d="M.24,85.13l11.25,6.11L7.83,97.35l6.75,3.2,2,1"/><path class="cls-1" d="M64.77,26.16v2.67l3.93,6.61s2.26-4.52,3.74-2.89,8,5.49,8,5.49"/><polyline class="cls-1" points="32.3 35.44 28.15 38.94 32.3 47.78 38.76 51.74"/><polyline class="cls-1" points="8.39 35.44 14.58 38.04 18.9 38.94"/><path class="cls-1" d="M37.36,77.48a11.61,11.61,0,0,0,0,4.56c.57,1.63,7.72,2.34,3.58,4.23s-1.27,7.06-1.27,7.06"/></g></g></svg>