<svg xmlns="http://www.w3.org/2000/svg" viewBox="0 0 213.66 89.93"><defs><style>.cls-1{fill:none;stroke:#231f20;stroke-miterlimit:10;}</style></defs><g id="Capa_2" data-name="Capa 2"><g id="Layer_1" data-name="Layer 1"><path class="cls-1" d="M152.35,76.7C152,76.14,122,52.57,122,52.57l-3.19-2.25H70.29s-31.5,24-31.87,24.56"/><polyline class="cls-1" points="185.6 89.5 167.98 78.33 35.42 78.33 23.23 78.33 8.98 88"/><path class="cls-1" d="M65.77,50.32l-5.42-.75-4.87.37c-1.5-.19,1.69-.19-1.5-.19s-5.06.19-6-.18.19-.57-.94-.38-.75.3-1.87.53,0,1-1.88.6a21.14,21.14,0,0,0-4.12-.55c-1.13,0,1.31.73-2.25.55s-3.75-.72-5.44-.55,0-.17-2.44,0-2.25-.36-4.5,0a30.54,30.54,0,0,1-3.19.55H18.54a7.35,7.35,0,0,0-2.06,0,7.87,7.87,0,0,1-1.88.1.72.72,0,0,0-1.12,0c-.56.63.56,1-.56.63S12,49.94,11,50.32s.75.18-.94.37a24.37,24.37,0,0,0-3,.53l-.93-.9H4.85l-1.31-.15-1.87.52s-.75-.94-1.32-.37"/><path class="cls-1" d="M33.06,75.25s1.42,1.88,1,0l-.37-1.87h2.62c.94-1.31-.56-1.31.94-1.31s.38,1.5,1.5,0,.19-1.13,1.13-1.5,0,.18.93-.38-.37.94.94-.56,1.31-1.69,1.88-2.25l.56-.56H46c.51,0-.24.75.51,0s-.38.56.75-.75a24.3,24.3,0,0,1,2.62-2.56s2.68-1,2.63-1.33-.28-.8,0-.94a7.44,7.44,0,0,1,.89-.47,4.83,4.83,0,0,0,.89-.47,1.93,1.93,0,0,0,.66-.61c.14-.28,0-.66.28-.51s-.14,0,.42,0,.94-.11,1.08-.29a8.69,8.69,0,0,1,.7-.71,4.39,4.39,0,0,1,.7-.65c.19-.1.71-.19.94-.47s.33-.84.52-1a3.74,3.74,0,0,1,.93-.28s.19.38.29,0,.51-2,.79-1.73.33.12.66,0,.19-.25.61-.35.7,0,.79-.18,0-.66.33-.61.52.51.71,0,.37-1,.61-1.07.46,0,.49-.19a8.45,8.45,0,0,1,1.12-1.41s.18-.12,0-.15a1.47,1.47,0,0,0-.65.24.34.34,0,0,1-.41.17,3.74,3.74,0,0,0-.48-.11"/><path class="cls-1" d="M156.18,76.7c-.65.32-.2-.51,0-1s-2.25,0-2.54,0-.65-.09-1.28-1.69-.12-.75-.5-.84a3.6,3.6,0,0,1-2.06-.75c-.94-.75,0,0-.28-.75s0,0,0-.66-.38-.09-.84-.37-.75-.28-1.69-.75-.38-.19-1.13-1,0,0-.37-.66,0,0-.66-.37-.37,0-1.69-.66,0,0-.37-1.22,0,0-.19-.28-.37-.09-.84-.47a14.89,14.89,0,0,1-1.46-.94c-.8-.65,0-.65,0-.77a6,6,0,0,0,0-1.29c-.1-.37-.75-.09-2-.37s-.38-.19-.56-.66a3,3,0,0,1,0-1.59c.09-.66-.94,0-1.32,0s-.75-.19-1.87-.94-.28-.66-.75-.84,0,0-.66-.29-.47.1-.75,0-.65-.65-.84-1.5,0,0-.28.1a1,1,0,0,1-.56,0,1.89,1.89,0,0,1-.47-.94c-.1-.56-.75-.56-1-1.12s-.29,0-.47,0h-1.52c-.76,0-.17-.29-.64-.75s-.37-.29-.56-.66-.28-.38-.75-.56,0,0-.66-.19a11.2,11.2,0,0,1-1.34-.51,11.42,11.42,0,0,0-1.85-1.08c-1.44-.67-.37-.85-.37-.85h1.64s.14-.09.56-.42a1,1,0,0,1,1-.23c.24.09-.14-.21.47-.06s.75,0,1.41,0a4.37,4.37,0,0,0,1.55-.28,31.08,31.08,0,0,1,4.68,0s0-1.31.94-1.12,2.65.57,2.65.57c1.32-1.06.95-1,2.43-.59s2.8-1.12,3.73-.08.87.2,2.56-.18,1.57-.47,2.13-.19,0-.92,1.88,0a5.88,5.88,0,0,0,3.68.69c1.57,0,.26-.73,2.5-1s3.94.48,5.06,0,2.38,1.24,3.5.68,2.06-1.73,3.75-.68,2.44-.26,3.38-.07a14.15,14.15,0,0,0,2.81.37,18.2,18.2,0,0,1,3.56-.18c1.69.18,2.06-.85,2.63-.54s2.06.14,3.23.14c4.34,0,3.42.23,4.36.42a5.11,5.11,0,0,0,2.16-.21s4.55-.52,5.15-.07c2.26,1.67,5.58-.46,6.33-.05,1.23.66.75,0,2.81-.23s3.33-.94,5.21,0,4.64-.53,4.64-.53"/><line class="cls-1" x1="111.44" y1="38.83" x2="111.43" y2="38.83"/><path class="cls-1" d="M105.49,39l-23.85.75"/><path class="cls-1" d="M62.84,40.35,43.17,41c-.56,0,.75-9.75,1.69-10.87S59.48,25,59.48,25L69.9,10.9a4.51,4.51,0,0,1,3.22-1.8c3.4-.28,10.66-.89,18.32-1.49,2.31-.18,4.65-.36,6.93-.52l4.45-.32c6.88-.49,12.52-.81,13.85-.68,3.94.37,9.75,13.68,11.44,14.25s21,2.62,24.18,3.37a1.85,1.85,0,0,1,.83.49,11.08,11.08,0,0,1,2.14,4.46A61.32,61.32,0,0,1,157,37.4l-32.87,1"/><line class="cls-1" x1="118.96" y1="38.6" x2="118.95" y2="38.6"/><circle class="cls-1" cx="72.24" cy="40.06" r="9.41"/><circle class="cls-1" cx="114.84" cy="40.06" r="9.41"/><circle class="cls-1" cx="115.23" cy="40.06" r="4"/><circle class="cls-1" cx="72.24" cy="40.06" r="4"/><path class="cls-1" d="M73.73,12.65c-1.5,1.88-7.31,11.63-7,11.44S95,22.31,95,22.31l-.67-10.4A1.2,1.2,0,0,0,93,10.8Z"/><path class="cls-1" d="M102.42,10.31l.84,11L121.45,20s-1.69-9.75-5-10.59S102.42,10.31,102.42,10.31Z"/><line class="cls-1" x1="98.37" y1="7.09" x2="98.37" y2="39"/><path class="cls-1" d="M155.26,28.66s-1.82.35-2.38,0-1.13-3.31-.92-3.8l1.16-.66"/><path class="cls-1" d="M91.44,7.62c0-.41-.6-2,.53-2S101.2,5,101.2,5s2-.32,1.62,1.81"/><polygon class="cls-1" points="93.69 0.89 93.69 5.51 98.94 5.14 98.37 0.53 93.69 0.89"/><path class="cls-1" d="M102.86,14.6s2.5-3,2.56,6.68"/><path class="cls-1" d="M74.34,23.51c0-.34-1.06-7.23,2.46-6.8s4,6.33,4,6.33"/><line class="cls-1" x1="83.54" y1="11.71" x2="83.54" y2="23.04"/><line class="cls-1" x1="86.86" y1="11.39" x2="86.86" y2="22.78"/><line class="cls-1" x1="89.67" y1="11.12" x2="89.67" y2="22.62"/><line class="cls-1" x1="92.26" y1="10.87" x2="92.26" y2="22.47"/><path class="cls-1" d="M94.43,13.26c0-.09-10.89.89-10.89.89"/><line class="cls-1" x1="94.43" y1="16.67" x2="83.54" y2="17.44"/><line class="cls-1" x1="94.83" y1="19.51" x2="83.54" y2="20.5"/><line class="cls-1" x1="156.09" y1="32.04" x2="120.86" y2="32.83"/><line class="cls-1" x1="108.81" y1="32.83" x2="78.91" y2="33.43"/><line class="cls-1" x1="43.58" y1="35.09" x2="64.79" y2="34.33"/><path class="cls-1" d="M120.5,18.08h-3.73l-.6,1.93"/><path class="cls-1" d="M113.47,20.5c.1-.56.45-4,1-3.83s.35,3.13.35,3.13v.49"/><line class="cls-1" x1="66.7" y1="24.09" x2="65.89" y2="33.13"/><line class="cls-1" x1="93.86" y1="25.78" x2="89.67" y2="26.06"/><line class="cls-1" x1="104.14" y1="25.5" x2="108.81" y2="25.21"/></g></g></svg>