<svg xmlns="http://www.w3.org/2000/svg" viewBox="0 0 53.29 98.36"><defs><style>.cls-1{fill:#3f251b;}.cls-1,.cls-2,.cls-3,.cls-4,.cls-5,.cls-6{stroke:#000;}.cls-1,.cls-2,.cls-3,.cls-5,.cls-6{stroke-miterlimit:10;}.cls-2,.cls-4{fill:#5b362a;}.cls-3{fill:#98712a;}.cls-4{stroke-linecap:round;stroke-linejoin:round;}.cls-6{fill:none;}</style></defs><g id="Capa_2" data-name="Capa 2"><g id="Layer_1" data-name="Layer 1"><polygon class="cls-1" points="46.49 10.02 46.49 97.77 0.5 90.39 0.5 2.64 46.49 10.02"/><polygon class="cls-2" points="38.75 49.87 7.57 43.98 7.57 12.48 38.75 18.37 38.75 49.87"/><polygon class="cls-2" points="38.75 89.62 7.57 84.95 7.57 51.16 38.75 56.62 38.75 89.62"/><circle class="cls-3" cx="42.29" cy="53.32" r="1.71"/><polygon class="cls-1" points="35.07 46.09 10.99 41.86 10.99 17.27 35.07 21.7 35.07 46.09"/><polygon class="cls-1" points="34.7 84.95 11.36 81.32 11.36 57.55 34.7 61.28 34.7 84.95"/><polygon class="cls-4" points="48.93 7.93 48.93 95.68 46.49 97.77 46.49 10.02 48.91 7.93 48.93 7.93"/><polygon class="cls-4" points="48.91 7.93 46.49 10.02 0.5 2.64 2.36 0.8 2.66 0.5 48.91 7.93"/><path class="cls-5" d="M52.79,1.11V89.62H48.93V7.93h0L2.66.5C3.48.52,52,1.39,52.79,1.11Z"/><line class="cls-6" x1="48.93" y1="89.62" x2="48.92" y2="89.62"/></g></g></svg>