<svg xmlns="http://www.w3.org/2000/svg" viewBox="0 0 68.2 68.2"><defs><style>.cls-1{fill:#fff;stroke-width:0.76px;}.cls-1,.cls-3{stroke:#231f20;stroke-linecap:round;stroke-linejoin:round;}.cls-2{fill:#791314;}.cls-3{fill:none;}</style></defs><g id="Capa_2" data-name="Capa 2"><g id="Layer_2" data-name="Layer 2"><path class="cls-1" d="M43.73,36.52a12.41,12.41,0,0,1-4.15,3.07l-.32.16S34.7,40.8,36.14,59c3.88.18,6.8,1,6.8,2s-3.76,2-8.4,2-8.41-.92-8.41-2,3.05-1.85,7.05-2c1-16.8-1.06-18-2.83-19.05l-.1-.09A12.27,12.27,0,0,1,22.54,31a12.53,12.53,0,0,1-.16-3.67L24.15,8.82l.69-.1a66.6,66.6,0,0,1,19.38.1l2.36,17.94A12.29,12.29,0,0,1,43.73,36.52Z"/><path class="cls-1" d="M36.22,60.06c0-.35-.06-.68-.08-1"/><path class="cls-1" d="M33.18,59c0,.29,0,.59-.06.89"/><path class="cls-2" d="M24.36,24.51S21,38.63,34.44,38.74C47.2,38.85,44,24,44,24S33.21,21.91,24.36,24.51Z"/><path class="cls-1" d="M37.7,39.8a7.23,7.23,0,0,1-3,.65h0A7.32,7.32,0,0,1,32.12,40"/><circle class="cls-3" cx="34.1" cy="34.1" r="33.6"/></g></g></svg>